0.06m3min_grf.mot
version=1
nRows=25
nColumns 19
inDegrees=yes
endheader
time	1_ground_force_vx	1_ground_force_vy	1_ground_force_vz	1_ground_force_px	1_ground_force_py	1_ground_force_pz	1_ground_torque_x	1_ground_torque_y	1_ground_torque_z	2_ground_force_vx	2_ground_force_vy	2_ground_force_vz	2_ground_force_px	2_ground_force_py	2_ground_force_pz	2_ground_torque_x	2_ground_torque_y	2_ground_torque_z
            3.751500	            0.091172	            4.686335	            0.157437	           -0.233013	            0.005581	           -0.255695	            0.292033	           -0.194894	            0.208961	            0.275042	            1.480227	           -1.684275	           -0.232311	            0.006130	           -0.833667	           -0.169134	           -0.000073	           -0.150730
            3.752000	            0.091367	            4.866208	            0.249922	           -0.233013	            0.005581	           -0.255695	            0.400263	           -0.175738	            0.058383	            0.458995	            2.402649	           -1.962638	           -0.232311	            0.006130	           -0.833667	           -0.093839	           -0.046930	           -0.188631
            3.752500	            0.000592	            4.864617	            0.616997	           -0.233013	            0.005581	           -0.255695	            0.271835	           -0.157063	           -0.001521	            0.604280	            1.113449	           -1.779585	           -0.232311	            0.006130	           -0.833667	           -0.169193	            0.009582	           -0.207247
            3.753000	           -0.045446	            4.684736	            0.524626	           -0.233013	            0.005581	           -0.255695	            0.445050	           -0.222161	            0.089812	            0.466347	            0.376683	           -1.876009	           -0.232311	            0.006130	           -0.833667	           -0.112726	           -0.018640	           -0.188522
            3.753500	            0.275293	            4.324660	            0.430572	           -0.233013	            0.005581	           -0.255695	            0.411726	           -0.203617	            0.122468	            0.606191	            0.561674	           -1.969268	           -0.232311	            0.006130	           -0.833667	           -0.131606	            0.009583	           -0.169562
            3.754000	            0.504100	            4.685825	            0.293981	           -0.233013	            0.005581	           -0.255695	            0.454831	           -0.184860	            0.094606	            0.086149	            1.849186	           -2.058306	           -0.232311	            0.006130	           -0.833667	           -0.150237	           -0.037614	           -0.207423
            3.754500	            0.365954	            4.326447	            0.017641	           -0.233013	            0.005581	           -0.255695	            0.372730	           -0.166140	            0.013846	            0.041978	            1.112256	           -2.013986	           -0.232311	            0.006130	           -0.833667	           -0.168997	           -0.047067	           -0.226299
            3.755000	            0.366475	            3.965129	            0.199519	           -0.233013	            0.005581	           -0.255695	            0.402971	           -0.203585	            0.126412	            0.414180	            1.849700	           -1.870733	           -0.232311	            0.006130	           -0.833667	           -0.131537	           -0.018506	           -0.245064
            3.755500	            0.458779	            4.324499	            0.475972	           -0.233013	            0.005581	           -0.255695	            0.334798	           -0.222194	            0.167994	            0.362699	            3.138402	           -1.819185	           -0.232311	            0.006130	           -0.833667	           -0.206567	           -0.047203	           -0.226283
            3.756000	            0.092116	            4.504497	            0.523512	           -0.233013	            0.005581	           -0.255695	            0.351409	           -0.194547	            0.133629	            0.417503	            0.928959	           -1.874018	           -0.232311	            0.006130	           -0.833667	           -0.150398	            0.000399	           -0.263839
            3.756500	           -0.045542	            3.964067	            0.429822	           -0.233013	            0.005581	           -0.255695	            0.393100	           -0.175958	            0.090164	            0.608185	            0.009229	           -1.971239	           -0.232311	            0.006130	           -0.833667	           -0.131512	           -0.018708	           -0.188514
            3.757000	            0.137650	            4.324830	            0.385057	           -0.233013	            0.005581	           -0.255695	            0.319754	           -0.175889	            0.098153	            0.555518	            1.665055	           -1.589881	           -0.232311	            0.006130	           -0.833667	           -0.188038	            0.028352	           -0.188321
            3.757500	            0.412903	            4.504756	            0.476859	           -0.233013	            0.005581	           -0.255695	            0.503351	           -0.249429	            0.052709	            0.226096	            2.033340	           -1.916924	           -0.232311	            0.006130	           -0.833667	           -0.112736	           -0.009389	           -0.131937
            3.758000	            0.412300	            4.686004	            0.248353	           -0.233013	            0.005581	           -0.255695	            0.419141	           -0.193993	            0.053150	            0.280174	            0.008547	           -2.111884	           -0.232311	            0.006130	           -0.833667	           -0.131519	           -0.027824	           -0.282798
            3.758500	            0.182858	            4.686353	            0.157210	           -0.233013	            0.005581	           -0.255695	            0.366576	           -0.221600	           -0.013006	            0.369304	            1.297254	           -1.919612	           -0.232311	            0.006130	           -0.833667	           -0.093822	           -0.047065	           -0.150930
            3.759000	            0.275586	            3.963735	            0.520738	           -0.233013	            0.005581	           -0.255695	            0.445454	           -0.221852	            0.065925	           -0.002796	            0.558972	           -1.828225	           -0.232311	            0.006130	           -0.833667	           -0.206704	           -0.009392	           -0.226148
            3.759500	            0.045997	            4.144547	            0.384512	           -0.233013	            0.005581	           -0.255695	            0.432406	           -0.212722	            0.056216	            0.325174	            0.559989	           -1.781436	           -0.232311	            0.006130	           -0.833667	           -0.262914	           -0.056657	           -0.282844
            3.760000	            0.137764	            4.324633	            0.430913	           -0.233013	            0.005581	           -0.255695	            0.392751	           -0.194118	            0.041499	            0.182630	            1.111927	           -1.779405	           -0.232311	            0.006130	           -0.833667	           -0.244368	            0.009579	           -0.282615
            3.760500	            0.046371	            3.963691	            0.521306	           -0.233013	            0.005581	           -0.255695	            0.445475	           -0.212795	            0.074988	            0.233448	            0.007373	           -1.830296	           -0.232311	            0.006130	           -0.833667	           -0.150407	            0.000466	           -0.282689
            3.761000	            0.184095	            4.143590	            0.613450	           -0.233013	            0.005581	           -0.255695	            0.441452	           -0.148025	            0.081133	            0.324365	            0.745309	           -2.109276	           -0.232311	            0.006130	           -0.833667	           -0.169133	           -0.009256	           -0.226164
            3.761500	            0.183086	            4.685960	            0.248921	           -0.233013	            0.005581	           -0.255695	            0.400388	           -0.175696	            0.062299	            0.509168	            1.482077	           -1.965943	           -0.232311	            0.006130	           -0.833667	           -0.150340	           -0.009256	           -0.207322
            3.762000	            0.320926	            3.604196	            0.289798	           -0.233013	            0.005581	           -0.255695	            0.342832	           -0.203373	            0.068226	            0.365878	            2.218832	           -2.150967	           -0.232311	            0.006130	           -0.833667	           -0.150281	           -0.018910	           -0.150805
            3.762500	            0.321315	            3.963941	            0.474768	           -0.233013	            0.005581	           -0.255695	            0.334865	           -0.166555	            0.105987	            0.276892	            0.928953	           -2.014743	           -0.232311	            0.006130	           -0.833667	           -0.225251	           -0.066445	           -0.150942
            3.763000	            0.137653	            3.063363	            0.287935	           -0.233013	            0.005581	           -0.255695	            0.418388	           -0.203684	            0.116632	            0.276892	            0.928953	           -2.014743	           -0.232311	            0.006130	           -0.833667	           -0.187954	            0.009312	           -0.150688
            3.763500	            0.137830	            3.964102	            0.429367	           -0.233013	            0.005581	           -0.255695	            0.355632	           -0.231421	            0.116637	            0.133766	            1.664370	           -1.824342	           -0.232311	            0.006130	           -0.833667	           -0.206645	           -0.019046	           -0.169631
